<svg width="32" height="32" viewBox="0 0 32 32" fill="none" xmlns="http://www.w3.org/2000/svg">
<path d="M30.8254 13.2048H16.3089V19.1713H24.6017C24.2441 21.0999 23.1593 22.7312 21.5241 23.824C20.1419 24.7481 18.3781 25.2946 16.3049 25.2946C12.291 25.2946 8.89593 22.5825 7.68253 18.9383C7.37718 18.0142 7.20039 17.0258 7.20039 16.0093C7.20039 14.9928 7.37718 14.0044 7.68253 13.0803C8.89994 9.44009 12.295 6.72804 16.3089 6.72804C18.5709 6.72804 20.5999 7.50751 22.1991 9.03429L26.6187 4.61063C23.9468 2.11956 20.4633 0.592773 16.3089 0.592773C10.2861 0.592773 5.07494 4.04813 2.53968 9.08652C1.49503 11.1678 0.900391 13.5222 0.900391 16.0133C0.900391 18.5044 1.49503 20.8548 2.53968 22.9361C5.07494 27.9745 10.2861 31.4298 16.3089 31.4298C20.4714 31.4298 23.9589 30.0477 26.5062 27.6932C29.4191 25.0093 31.1026 21.0557 31.1026 16.3588C31.1026 15.266 31.0062 14.2173 30.8254 13.2048Z" fill="white"/>
</svg>
